<?xml version="1.0" encoding="UTF-8" standalone="no"?>
<!-- Created with Inkscape (http://www.inkscape.org/) -->

<svg
   xmlns:dc="http://purl.org/dc/elements/1.1/"
   xmlns:cc="http://creativecommons.org/ns#"
   xmlns:rdf="http://www.w3.org/1999/02/22-rdf-syntax-ns#"
   xmlns:svg="http://www.w3.org/2000/svg"
   xmlns="http://www.w3.org/2000/svg"
   xmlns:sodipodi="http://sodipodi.sourceforge.net/DTD/sodipodi-0.dtd"
   xmlns:inkscape="http://www.inkscape.org/namespaces/inkscape"
   version="1.1"
   id="svg2244"
   xml:space="preserve"
   width="800"
   height="800"
   viewBox="0 0 800 800"
   sodipodi:docname="dots-perspective-logo-freesvg.org.svg"
   inkscape:version="0.92.4 (5da689c313, 2019-01-14)"><metadata
     id="metadata2250"><rdf:RDF><cc:Work
         rdf:about=""><dc:format>image/svg+xml</dc:format><dc:type
           rdf:resource="http://purl.org/dc/dcmitype/StillImage" /><dc:title></dc:title></cc:Work></rdf:RDF></metadata><defs
     id="defs2248"><clipPath
       clipPathUnits="userSpaceOnUse"
       id="clipPath2260"><path
         d="M 0,600 H 600 V 0 H 0 Z"
         id="path2258"
         inkscape:connector-curvature="0" /></clipPath></defs><sodipodi:namedview
     pagecolor="#ffffff"
     bordercolor="#666666"
     borderopacity="1"
     objecttolerance="10"
     gridtolerance="10"
     guidetolerance="10"
     inkscape:pageopacity="0"
     inkscape:pageshadow="2"
     inkscape:window-width="1920"
     inkscape:window-height="1018"
     id="namedview2246"
     showgrid="false"
     inkscape:zoom="0.92079044"
     inkscape:cx="384.74576"
     inkscape:cy="396.61017"
     inkscape:window-x="-8"
     inkscape:window-y="-8"
     inkscape:window-maximized="1"
     inkscape:current-layer="g2252" /><g
     id="g2252"
     inkscape:groupmode="layer"
     inkscape:label="dots-11-publicdomainvectors.org [Converted]"
     transform="matrix(1.3333333,0,0,-1.3333333,0,800)"><g
       id="g2254"><g
         id="g2256"
         clip-path="url(#clipPath2260)"><path
           d="m 443.629,355.3 c 1.01,-5.477 6.32,-12.067 11.758,-14.541 5.352,-2.427 8.58,0.16 7.329,5.612 -1.22,5.297 -6.272,11.449 -11.382,13.908 -5.192,2.492 -8.68,0.343 -7.705,-4.979"
           style="fill:#000711;fill-opacity:1;fill-rule:nonzero;stroke:none"
           id="path2262"
           inkscape:connector-curvature="0" /><path
           d="m 431.299,389.173 c 3.216,-5.385 9.221,-9.785 13.266,-9.751 3.941,0.043 4.439,4.296 1.256,9.438 -3.135,5.058 -8.785,9.255 -12.756,9.461 -4.075,0.202 -4.925,-3.851 -1.766,-9.148"
           style="fill:#000711;fill-opacity:1;fill-rule:nonzero;stroke:none"
           id="path2264"
           inkscape:connector-curvature="0" /><path
           d="m 406.947,421.013 c 4.735,-4.626 10.46,-6.701 12.737,-4.687 2.199,1.961 0.295,7.056 -4.189,11.434 -4.478,4.368 -10.025,6.548 -12.473,4.842 -2.513,-1.768 -0.793,-6.968 3.925,-11.589"
           style="fill:#000711;fill-opacity:1;fill-rule:nonzero;stroke:none"
           id="path2266"
           inkscape:connector-curvature="0" /><path
           d="m 374.136,447.153 c 5.705,-3.361 10.451,-3.053 10.674,0.56 0.211,3.513 -3.958,8.913 -9.37,12.195 -5.485,3.318 -10.375,3.336 -10.884,-0.089 -0.512,-3.528 3.798,-9.256 9.58,-12.666"
           style="fill:#000711;fill-opacity:1;fill-rule:nonzero;stroke:none"
           id="path2268"
           inkscape:connector-curvature="0" /><path
           d="m 336.048,463.995 c 6.106,-1.492 9.077,1.358 6.834,6.253 -2.204,4.796 -8.697,9.944 -14.693,11.628 -6.161,1.726 -9.614,-0.797 -7.531,-5.78 2.134,-5.082 9.11,-10.557 15.39,-12.101"
           style="fill:#000711;fill-opacity:1;fill-rule:nonzero;stroke:none"
           id="path2270"
           inkscape:connector-curvature="0" /><path
           d="m 297.206,466.688 c 5.556,1.217 5.583,6.76 0.277,12.417 -5.286,5.625 -14.154,9.535 -20.039,8.741 -6.11,-0.836 -6.72,-6.406 -1.106,-12.451 5.641,-6.074 15.087,-9.962 20.868,-8.707"
           style="fill:#000711;fill-opacity:1;fill-rule:nonzero;stroke:none"
           id="path2272"
           inkscape:connector-curvature="0" /><path
           d="m 266.039,448.995 c 3.269,4.829 -1.226,12.696 -10.055,17.846 -8.977,5.227 -19.537,5.961 -23.648,1.416 -4.269,-4.772 0.211,-13.315 10.039,-18.82 9.663,-5.404 20.237,-5.471 23.664,-0.442"
           style="fill:#000711;fill-opacity:1;fill-rule:nonzero;stroke:none"
           id="path2274"
           inkscape:connector-curvature="0" /><path
           d="m 256.606,406.782 c -1.462,8.429 -11.585,16.597 -23.079,18.579 -11.97,2.05 -21.419,-3.249 -20.637,-12.216 0.829,-9.298 12.194,-18.338 24.871,-19.834 12.139,-1.415 20.345,4.755 18.845,13.471"
           style="fill:#000711;fill-opacity:1;fill-rule:nonzero;stroke:none"
           id="path2276"
           inkscape:connector-curvature="0" /><path
           d="m 282.821,347.538 c -7.474,9.402 -21.38,13.522 -31.684,9.069 -10.928,-4.741 -13.803,-17.274 -5.726,-27.872 8.199,-10.724 23.721,-14.395 34.018,-8.434 9.675,5.629 10.934,17.718 3.392,27.237"
           style="fill:#000711;fill-opacity:1;fill-rule:nonzero;stroke:none"
           id="path2278"
           inkscape:connector-curvature="0" /><path
           d="m 341.151,296.113 c -10.755,5.711 -22.547,2.075 -26.365,-8.77 -4.047,-11.527 2.461,-26.296 14.554,-32.253 11.862,-5.826 23.595,-0.43 26.3,11.315 2.536,11.083 -3.929,24.087 -14.489,29.708"
           style="fill:#000711;fill-opacity:1;fill-rule:nonzero;stroke:none"
           id="path2280"
           inkscape:connector-curvature="0" /><path
           d="m 404.574,277.054 c -8.927,-0.345 -13.634,-10.188 -10.071,-22.437 3.727,-12.746 14.675,-22.363 23.969,-21.079 8.9,1.257 12.435,12.093 8.379,23.862 -3.916,11.331 -13.697,19.963 -22.277,19.654"
           style="fill:#000711;fill-opacity:1;fill-rule:nonzero;stroke:none"
           id="path2282"
           inkscape:connector-curvature="0" /><path
           d="m 447.056,292.117 c -4.368,-4.805 -2.357,-16.103 4.78,-25.16 7.24,-9.162 16.433,-11.87 20.309,-6.201 3.671,5.416 1.033,16.413 -5.687,24.716 -6.649,8.197 -15.213,11.211 -19.402,6.645"
           style="fill:#000711;fill-opacity:1;fill-rule:nonzero;stroke:none"
           id="path2284"
           inkscape:connector-curvature="0" /><path
           d="m 461.751,327.079 c -0.122,-6.637 5.627,-16.142 12.776,-20.94 7.077,-4.736 12.425,-2.772 12.035,4.088 -0.379,6.588 -5.955,15.367 -12.525,19.891 -6.643,4.564 -12.161,3.329 -12.286,-3.039"
           style="fill:#000711;fill-opacity:1;fill-rule:nonzero;stroke:none"
           id="path2286"
           inkscape:connector-curvature="0" /><path
           d="m 453.876,368.428 c 2.889,-6.75 9.926,-13.446 15.514,-14.749 5.443,-1.261 7.238,3.141 4.219,9.652 -2.945,6.335 -9.477,12.533 -14.788,14.038 -5.448,1.531 -7.745,-2.375 -4.945,-8.941"
           style="fill:#000712;fill-opacity:1;fill-rule:nonzero;stroke:none"
           id="path2288"
           inkscape:connector-curvature="0" /><path
           d="m 430.252,408.455 c 4.879,-6.023 11.865,-9.896 15.453,-8.635 3.459,1.228 2.372,6.803 -2.282,12.449 -4.606,5.581 -11.195,9.387 -14.876,8.541 -3.803,-0.89 -3.112,-6.396 1.705,-12.355"
           style="fill:#010916;fill-opacity:1;fill-rule:nonzero;stroke:none"
           id="path2290"
           inkscape:connector-curvature="0" /><path
           d="m 395.649,443.187 c 6.238,-4.833 12.434,-6.017 13.842,-2.782 1.354,3.127 -2.276,9.262 -8.104,13.833 -5.875,4.595 -12.032,6.095 -13.791,3.234 -1.815,-2.972 1.779,-9.422 8.053,-14.285"
           style="fill:#010b19;fill-opacity:1;fill-rule:nonzero;stroke:none"
           id="path2292"
           inkscape:connector-curvature="0" /><path
           d="m 353.104,469.574 c 7.14,-3.141 11.87,-1.561 10.763,3.337 -1.083,4.755 -7.337,11.043 -14.148,14.229 -6.978,3.262 -12.158,2.185 -11.417,-2.61 0.772,-4.939 7.478,-11.73 14.802,-14.956"
           style="fill:#020d1c;fill-opacity:1;fill-rule:nonzero;stroke:none"
           id="path2294"
           inkscape:connector-curvature="0" /><path
           d="m 305.616,483.316 c 7.416,-0.631 9.626,4.045 5.281,10.341 -4.29,6.193 -13.586,11.987 -21.098,13.062 -7.82,1.117 -10.897,-3.238 -6.525,-9.879 4.455,-6.75 14.618,-12.858 22.342,-13.524"
           style="fill:#020f1f;fill-opacity:1;fill-rule:nonzero;stroke:none"
           id="path2296"
           inkscape:connector-curvature="0" /><path
           d="m 259.207,477.229 c 6.283,3.185 4.139,11.245 -4.557,18.206 -8.756,6.994 -21.465,10.734 -28.667,8.191 -7.588,-2.683 -6.132,-11.2 3.566,-18.858 9.646,-7.601 23.034,-10.879 29.658,-7.539"
           style="fill:#031123;fill-opacity:1;fill-rule:nonzero;stroke:none"
           id="path2298"
           inkscape:connector-curvature="0" /><path
           d="m 227.474,441.868 c 2.275,8.277 -6.769,18.855 -20.546,24.181 -14.285,5.505 -29.215,3.687 -33.086,-4.632 -4.05,-8.802 5.886,-20.86 21.842,-26.314 15.348,-5.229 29.381,-1.938 31.79,6.765"
           style="fill:#031326;fill-opacity:1;fill-rule:nonzero;stroke:none"
           id="path2300"
           inkscape:connector-curvature="0" /><path
           d="m 233.102,374.257 c -5.395,12.351 -22.222,21.192 -38.723,20.026 -17.652,-1.269 -28.951,-13.434 -23.973,-27.569 5.192,-14.626 25.186,-24.149 43.258,-21.008 16.815,2.945 24.97,15.799 19.438,28.551"
           style="fill:#04152a;fill-opacity:1;fill-rule:nonzero;stroke:none"
           id="path2302"
           inkscape:connector-curvature="0" /><path
           d="m 290.564,296.227 c -12.865,10.631 -31.829,10.515 -43.136,-1.127 -12.287,-12.68 -10.808,-33.753 4.243,-46.023 14.988,-12.184 35.823,-9.456 45.849,4.867 9.207,13.201 5.823,31.68 -6.956,42.283"
           style="fill:#04172d;fill-opacity:1;fill-rule:nonzero;stroke:none"
           id="path2304"
           inkscape:connector-curvature="0" /><path
           d="m 375.969,250.079 c -13.483,2.851 -24.736,-8.058 -24.665,-25.53 0.105,-18.712 12.971,-36.392 28.128,-38.199 14.505,-1.697 24.291,12.077 22.551,29.665 -1.654,16.506 -13.055,31.296 -26.014,34.064"
           style="fill:#051830;fill-opacity:1;fill-rule:nonzero;stroke:none"
           id="path2306"
           inkscape:connector-curvature="0" /><path
           d="m 444.356,254.05 c -8.038,-4.431 -8.816,-19.588 -1.087,-34.085 8.011,-14.981 21.269,-22.173 28.96,-15.956 7.229,5.884 6.442,21.373 -1.176,34.564 -7.401,12.789 -19.089,19.646 -26.697,15.477"
           style="fill:#051a34;fill-opacity:1;fill-rule:nonzero;stroke:none"
           id="path2308"
           inkscape:connector-curvature="0" /><path
           d="m 475.86,291.313 c -2.036,-7.73 3.561,-21.093 12.617,-29.456 9.063,-8.359 17.394,-7.859 18.569,0.68 1.099,8.086 -4.695,20.469 -12.9,28.043 -8.209,7.566 -16.341,8.05 -18.286,0.733"
           style="fill:#061c37;fill-opacity:1;fill-rule:nonzero;stroke:none"
           id="path2310"
           inkscape:connector-curvature="0" /><path
           d="m 475.936,340.186 c 2.138,-8.201 10.061,-17.841 17.458,-21.154 7.229,-3.229 10.798,1.023 8.225,9.139 -2.473,7.797 -9.821,16.529 -16.628,19.844 -6.957,3.38 -11.098,0.039 -9.055,-7.829"
           style="fill:#061e3a;fill-opacity:1;fill-rule:nonzero;stroke:none"
           id="path2312"
           inkscape:connector-curvature="0" /><path
           d="m 455.135,388.661 c 4.728,-7.453 12.886,-13.515 17.952,-13.391 4.887,0.13 4.889,6.006 0.258,13 -4.535,6.842 -12.052,12.527 -17.03,12.851 -5.153,0.326 -5.795,-5.174 -1.18,-12.46"
           style="fill:#07203e;fill-opacity:1;fill-rule:nonzero;stroke:none"
           id="path2314"
           inkscape:connector-curvature="0" /><path
           d="m 420.661,431.84 c 6.434,-6.255 13.927,-9.202 16.636,-6.665 2.59,2.447 -0.247,9.067 -6.233,14.878 -5.979,5.788 -13.173,8.908 -16.201,6.911 -3.145,-2.089 -0.608,-8.879 5.798,-15.124"
           style="fill:#072241;fill-opacity:1;fill-rule:nonzero;stroke:none"
           id="path2316"
           inkscape:connector-curvature="0" /><path
           d="m 376.197,467.302 c 7.7,-4.728 13.991,-4.737 14.186,-0.248 0.178,4.326 -5.404,11.347 -12.582,15.903 -7.301,4.627 -13.854,5.199 -14.566,1.058 -0.718,-4.307 5.125,-11.89 12.962,-16.713"
           style="fill:#082444;fill-opacity:1;fill-rule:nonzero;stroke:none"
           id="path2318"
           inkscape:connector-curvature="0" /><path
           d="m 323.747,491.988 c 8.62,-2.577 12.928,0.612 9.992,6.901 -2.867,6.12 -11.712,13.221 -20.1,16.101 -8.708,2.979 -13.932,0.428 -11.319,-5.982 2.701,-6.586 12.466,-14.325 21.427,-17.02"
           style="fill:#082648;fill-opacity:1;fill-rule:nonzero;stroke:none"
           id="path2320"
           inkscape:connector-curvature="0" /><path
           d="m 266.345,499.734 c 8.739,0.838 9.449,7.87 2.058,15.731 -7.351,7.803 -20.504,14.075 -29.88,14.06 -9.907,-0.031 -11.922,-6.982 -3.934,-15.615 8.051,-8.694 22.511,-15.038 31.756,-14.176"
           style="fill:#09284b;fill-opacity:1;fill-rule:nonzero;stroke:none"
           id="path2322"
           inkscape:connector-curvature="0" /><path
           d="m 213.186,479.203 c 6.552,6.308 0.588,17.577 -13.266,25.721 -14.202,8.331 -32.559,10.977 -41.205,5.413 -9.234,-5.976 -3.569,-18.672 12.842,-27.777 15.979,-8.851 34.617,-10.061 41.629,-3.357"
           style="fill:#092a4e;fill-opacity:1;fill-rule:nonzero;stroke:none"
           id="path2324"
           inkscape:connector-curvature="0" /><path
           d="m 187.581,416.826 c -0.515,13.229 -17.044,26.397 -38.162,30.269 -22.561,4.116 -43.488,-3.519 -45.446,-18.103 -2.038,-15.519 18.069,-31.11 43.306,-33.752 23.451,-2.427 40.796,7.616 40.302,21.586"
           style="fill:#0a2c52;fill-opacity:1;fill-rule:nonzero;stroke:none"
           id="path2326"
           inkscape:connector-curvature="0" /><path
           d="m 223.826,317.876 c -12.032,16.109 -37.787,22.394 -59.63,13.571 -24.212,-9.812 -35.035,-34.384 -21.434,-54.321 13.953,-20.363 45.675,-24.762 68.215,-10.891 20.234,12.486 25.075,35.214 12.849,51.641"
           style="fill:#0a2e55;fill-opacity:1;fill-rule:nonzero;stroke:none"
           id="path2328"
           inkscape:connector-curvature="0" /><path
           d="m 322.914,232.775 c -18.362,8.63 -39.976,-0.833 -48.568,-23.349 -9.504,-25.022 0.908,-54.808 23.515,-63.665 21.832,-8.5 43.544,7.168 48.744,32.302 4.682,22.771 -5.878,46.305 -23.691,54.712"
           style="fill:#0b3058;fill-opacity:1;fill-rule:nonzero;stroke:none"
           id="path2330"
           inkscape:connector-curvature="0" /><path
           d="m 425.236,212.365 c -13.515,-2.619 -20.283,-22.142 -13.976,-44.764 6.765,-24.168 24.919,-39.994 39.204,-34.238 13.308,5.406 17.086,27.424 9.647,48.373 -7.035,19.748 -22.173,33.063 -34.875,30.629"
           style="fill:#0b315c;fill-opacity:1;fill-rule:nonzero;stroke:none"
           id="path2332"
           inkscape:connector-curvature="0" /><path
           d="m 482.906,247.304 c -5.165,-8.646 -0.856,-27.293 10.159,-41.357 11.253,-14.327 23.952,-16.916 27.923,-6.249 3.687,9.948 -1.755,27.676 -11.795,40.016 -9.878,12.128 -21.443,15.654 -26.287,7.59"
           style="fill:#0c335f;fill-opacity:1;fill-rule:nonzero;stroke:none"
           id="path2334"
           inkscape:connector-curvature="0" /><path
           d="m 496.053,303.781 c 0.835,-9.822 9.422,-23.462 19.02,-29.862 9.464,-6.29 15.531,-2.633 13.805,7.569 -1.651,9.651 -9.789,21.853 -18.367,27.789 -8.704,6.009 -15.229,3.788 -14.458,-5.496"
           style="fill:#0c3562;fill-opacity:1;fill-rule:nonzero;stroke:none"
           id="path2336"
           inkscape:connector-curvature="0" /><path
           d="m 480.473,361.559 c 4.306,-9.019 13.607,-17.848 20.41,-19.363 6.575,-1.449 7.995,4.586 3.528,13.179 -4.317,8.295 -12.759,16.279 -19.173,18.151 -6.628,1.926 -8.906,-3.274 -4.765,-11.967"
           style="fill:#0d3766;fill-opacity:1;fill-rule:nonzero;stroke:none"
           id="path2338"
           inkscape:connector-curvature="0" /><path
           d="m 447.66,413.497 c 6.387,-7.694 15.103,-12.691 19.22,-11.132 3.935,1.501 2.077,8.476 -3.93,15.56 -5.929,6.985 -14.032,11.866 -18.339,10.964 -4.489,-0.954 -3.243,-7.81 3.049,-15.392"
           style="fill:#0d3969;fill-opacity:1;fill-rule:nonzero;stroke:none"
           id="path2340"
           inkscape:connector-curvature="0" /><path
           d="m 403.115,457.576 c 7.898,-6.207 15.544,-7.987 17.091,-4.186 1.466,3.643 -3.225,11.132 -10.489,16.912 -7.323,5.825 -14.927,8.074 -17.033,4.861 -2.186,-3.369 2.466,-11.322 10.431,-17.587"
           style="fill:#0e3b6c;fill-opacity:1;fill-rule:nonzero;stroke:none"
           id="path2342"
           inkscape:connector-curvature="0" /><path
           d="m 348.742,492.191 c 9.223,-4.381 15.312,-2.961 13.924,2.862 -1.349,5.61 -9.246,13.489 -17.922,17.899 -8.943,4.54 -15.771,3.926 -14.983,-1.696 0.828,-5.843 9.465,-14.532 18.981,-19.065"
           style="fill:#0e3d70;fill-opacity:1;fill-rule:nonzero;stroke:none"
           id="path2344"
           inkscape:connector-curvature="0" /><path
           d="m 285.4,513.227 c 10.277,-1.62 13.67,3.639 8.175,11.532 -5.392,7.73 -17.73,15.677 -28.134,17.996 -10.962,2.437 -15.915,-2.174 -10.422,-10.603 5.632,-8.615 19.532,-17.202 30.381,-18.925"
           style="fill:#0e3f73;fill-opacity:1;fill-rule:nonzero;stroke:none"
           id="path2346"
           inkscape:connector-curvature="0" /><path
           d="m 216.885,510.854 c 10.102,3.211 8.094,13.408 -3.951,23.075 -12.158,9.727 -31.134,16.198 -43.052,14.269 -12.811,-2.109 -12.435,-12.941 1.616,-24.01 13.934,-10.953 34.53,-16.772 45.387,-13.334"
           style="fill:#0f4176;fill-opacity:1;fill-rule:nonzero;stroke:none"
           id="path2348"
           inkscape:connector-curvature="0" /><path
           d="m 159.142,466.774 c 5.813,11.246 -6.895,26.501 -29.048,35.225 -23.377,9.179 -50.824,8.642 -60.865,-2.452 -10.879,-12.089 3.582,-30.63 31.591,-39.952 26.355,-8.741 52.024,-4.93 58.322,7.179"
           style="fill:#0f437a;fill-opacity:1;fill-rule:nonzero;stroke:none"
           id="path2350"
           inkscape:connector-curvature="0" /><path
           d="m 153.246,364.651 c -6.561,19.702 -35.099,33.694 -66.95,31.963 -35.544,-1.968 -64.246,-22.608 -60.032,-47.239 4.552,-26.173 43.125,-41.845 81.264,-34.422 33.766,6.606 52.572,28.979 45.718,49.698"
           style="fill:#10457d;fill-opacity:1;fill-rule:nonzero;stroke:none"
           id="path2352"
           inkscape:connector-curvature="0" /><path
           d="m 241.538,236.785 c -21.178,17.138 -56.134,13.894 -80.83,-10.126 -28.507,-27.775 -32.252,-71.408 -4.386,-93.193 27.647,-21.518 69.734,-8.57 91.179,24.006 18.582,28.281 15.037,62.278 -5.963,79.313"
           style="fill:#104780;fill-opacity:1;fill-rule:nonzero;stroke:none"
           id="path2354"
           inkscape:connector-curvature="0" /><path
           d="m 380.236,171.66 c -21.116,2.019 -39.55,-21.245 -40.031,-55.307 -0.492,-38.152 21.21,-70.62 46.751,-68.374 23.705,2.16 38.279,33.692 34.452,67.307 -3.493,30.395 -21.315,54.445 -41.172,56.374"
           style="fill:#114984;fill-opacity:1;fill-rule:nonzero;stroke:none"
           id="path2356"
           inkscape:connector-curvature="0" /><path
           d="m 477.691,194.205 c -10.301,-8.973 -9.725,-35.061 2.654,-58.631 13.038,-24.782 32.223,-34.003 41.469,-20.578 8.435,12.321 4.763,38.702 -7.136,59.049 -11.41,19.473 -27.468,28.42 -36.987,20.16"
           style="fill:#114b87;fill-opacity:1;fill-rule:nonzero;stroke:none"
           id="path2358"
           inkscape:connector-curvature="0" /><path
           d="m 512.254,257.735 c -1.37,-11.718 7.435,-31.115 19.778,-42.519 12.359,-11.393 22.184,-9.203 21.989,3.983 -0.195,12.256 -9.114,29.659 -19.925,39.647 -10.823,9.97 -20.551,9.78 -21.842,-1.111"
           style="fill:#124c8a;fill-opacity:1;fill-rule:nonzero;stroke:none"
           id="path2360"
           inkscape:connector-curvature="0" /><path
           d="m 505.33,326.438 c 3.548,-10.872 14.02,-23.416 22.986,-27.37 8.71,-3.826 12.052,2.224 7.903,12.919 -3.95,10.17 -13.442,21.213 -21.56,25.218 -8.346,4.103 -12.675,-0.452 -9.329,-10.767"
           style="fill:#124e8e;fill-opacity:1;fill-rule:nonzero;stroke:none"
           id="path2362"
           inkscape:connector-curvature="0" /></g></g></g></svg>